<svg xmlns="http://www.w3.org/2000/svg" viewBox="0 0 160 120" width="160" height="120"><circle cx="80" cy="60" r="49.25" fill="#FFFFFF" stroke="#DFE8E8" stroke-width="1.5"/><g transform="matrix(0.76 0 0 0.76 19.2 14.4)"><path d="M40 40a10 10 0 0 1 10-10h44a10 10 0 0 1 10 10v22a10 10 0 0 1-10 10h-36l-10 9v-9a8 8 0 0 1-8-8z" fill="#FFFFFF" stroke="#5B6B6D" stroke-width="2.75" stroke-linejoin="round"/>
<path d="M51 42h36" fill="none" stroke="#C9D6D7" stroke-width="3.2" stroke-linecap="round" stroke-linejoin="round"/><path d="M51 51h28" fill="none" stroke="#C9D6D7" stroke-width="3.2" stroke-linecap="round" stroke-linejoin="round"/><path d="M51 60h18" fill="none" stroke="#5B6B6D" stroke-width="3.2" stroke-linecap="round" stroke-linejoin="round"/>
<path d="M88 76a8 8 0 0 1 8-8h18a8 8 0 0 1 8 8v4a8 8 0 0 1-8 8h-2v7l-8-7h-8a8 8 0 0 1-8-8z" fill="#017C82" stroke="#FFFFFF" stroke-width="3" stroke-linejoin="round"/>
<path d="M97 78h16" fill="none" stroke="#FFFFFF" stroke-width="3.2" stroke-linecap="round" stroke-linejoin="round" opacity="0.7"/>
<path d="M116 23 Q117.26 28.74 123 30 Q117.26 31.26 116 37 Q114.74 31.26 109 30 Q114.74 28.74 116 23Z" fill="#017C82"/>
</g></svg>
