<svg xmlns="http://www.w3.org/2000/svg" viewBox="0 0 160 120" width="160" height="120"><circle cx="80" cy="60" r="49.25" fill="#FFFFFF" stroke="#DFE8E8" stroke-width="1.5"/><g transform="matrix(0.76 0 0 0.76 19.2 14.4)"><circle cx="62" cy="60" r="32" fill="#FFFFFF" stroke="#5B6B6D" stroke-width="2.75" stroke-linejoin="round"/>
<path d="M62 38.5 A21.5 21.5 0 0 1 74.02 77.82" fill="none" stroke="#017C82" stroke-width="9"/><path d="M72.09 78.98 A21.5 21.5 0 0 1 42.36 68.74" fill="none" stroke="#5B6B6D" stroke-width="9"/><path d="M41.55 66.64 A21.5 21.5 0 0 1 59.75 38.62" fill="none" stroke="#C9D6D7" stroke-width="9"/>
<rect x="98" y="40" width="34" height="40" rx="8" fill="#FFFFFF" stroke="#5B6B6D" stroke-width="2.75" stroke-linejoin="round"/>
<circle cx="106" cy="50" r="3" fill="#017C82"/><path d="M112 50h12" fill="none" stroke="#C9D6D7" stroke-width="2.5" stroke-linecap="round" stroke-linejoin="round"/>
<circle cx="106" cy="60" r="3" fill="#5B6B6D"/><path d="M112 60h9" fill="none" stroke="#C9D6D7" stroke-width="2.5" stroke-linecap="round" stroke-linejoin="round"/>
<circle cx="106" cy="70" r="3" fill="#C9D6D7"/><path d="M112 70h11" fill="none" stroke="#C9D6D7" stroke-width="2.5" stroke-linecap="round" stroke-linejoin="round"/>
</g></svg>
