<svg xmlns="http://www.w3.org/2000/svg" viewBox="0 0 160 120" width="160" height="120"><circle cx="80" cy="60" r="49.25" fill="#152427" stroke="#233438" stroke-width="1.5"/><g transform="matrix(0.76 0 0 0.76 19.2 14.4)"><g transform="rotate(8 96 43)"><rect x="64" y="22" width="64" height="42" rx="9" fill="#152427" stroke="#8FA0A3" stroke-width="2.75" stroke-linejoin="round"/><path d="M75 33h16" fill="none" stroke="#31464B" stroke-width="3.2" stroke-linecap="round" stroke-linejoin="round"/></g>
<rect x="30" y="38" width="88" height="58" rx="10" fill="#152427" stroke="#8FA0A3" stroke-width="2.75" stroke-linejoin="round"/>
<path d="M41 49h22" fill="none" stroke="#31464B" stroke-width="3.2" stroke-linecap="round" stroke-linejoin="round"/>
<path d="M41 60.5h38" fill="none" stroke="#8FA0A3" stroke-width="6" stroke-linecap="round" stroke-linejoin="round"/>
<path d="M41 75h22" fill="none" stroke="#08BDB1" stroke-width="5" stroke-linecap="round" stroke-linejoin="round"/><path d="M69 75h13" fill="none" stroke="#8FA0A3" stroke-width="5" stroke-linecap="round" stroke-linejoin="round"/><path d="M88 75h6" fill="none" stroke="#31464B" stroke-width="5" stroke-linecap="round" stroke-linejoin="round"/>
<circle cx="42" cy="86" r="2" fill="#08BDB1"/><path d="M47 86h10" fill="none" stroke="#31464B" stroke-width="2.5" stroke-linecap="round" stroke-linejoin="round"/><circle cx="64" cy="86" r="2" fill="#8FA0A3"/><path d="M69 86h10" fill="none" stroke="#31464B" stroke-width="2.5" stroke-linecap="round" stroke-linejoin="round"/>
<circle cx="118" cy="80" r="16" fill="#152427" stroke="#8FA0A3" stroke-width="2.75" stroke-linejoin="round"/>
<path d="M118 70.5 A9.5 9.5 0 1 1 117.98 70.5" fill="none" stroke="#31464B" stroke-width="4.5" stroke-linecap="round" stroke-linejoin="round"/>
<path d="M118 70.5 A9.5 9.5 0 1 1 109.39 84.01" fill="none" stroke="#08BDB1" stroke-width="4.5" stroke-linecap="round" stroke-linejoin="round"/>
</g></svg>
